PathFileType	4	(X/Y/Z)	C:\Users\Basilio\Documents\Thesis Gigler\squatting_fais\c3dfiles\054\SLS_back_pre4\markers_experimental.trc
DataRate	CameraRate	NumFrames	NumMarkers	Units	OrigDataRate	OrigDataStartFrame	OrigNumFrames
200.000000	200.000000	4	61	mm	200.000000	575	1535
Frame#	Time	FHD			LBHD			RBHD			C7			T10			CLAV			LSHO			LUUPA			LMUPA			LDUPA			LLEP			LMEP			LRAD			LUL			LRFIN			RSHO			RUPA1			RMUPA			RDUPA			RLEP			RMEP			RRAD			RUL			RUFIN			LASI			RASI			USACR			LSACR			RSACR			LTHI1			LTHI2			LTHI3			LTHI4			LLFC			LMFC			LTIB1			LTIB2			LTIB3			LTIB4			LLMAL			LMMAL			LHEE			LMT1			LMT2			LMT5			RTHI			RTHI2			RTHI3			RTHI4			RLFC			RMFC			RTIB1			RTIB2			RTIB3			RTIB4			RLMAL			RMMAL			RHEE			RMT1			RMT2			RMT5			
		X1	Y1	Z1	X2	Y2	Z2	X3	Y3	Z3	X4	Y4	Z4	X5	Y5	Z5	X6	Y6	Z6	X7	Y7	Z7	X8	Y8	Z8	X9	Y9	Z9	X10	Y10	Z10	X11	Y11	Z11	X12	Y12	Z12	X13	Y13	Z13	X14	Y14	Z14	X15	Y15	Z15	X16	Y16	Z16	X17	Y17	Z17	X18	Y18	Z18	X19	Y19	Z19	X20	Y20	Z20	X21	Y21	Z21	X22	Y22	Z22	X23	Y23	Z23	X24	Y24	Z24	X25	Y25	Z25	X26	Y26	Z26	X27	Y27	Z27	X28	Y28	Z28	X29	Y29	Z29	X30	Y30	Z30	X31	Y31	Z31	X32	Y32	Z32	X33	Y33	Z33	X34	Y34	Z34	X35	Y35	Z35	X36	Y36	Z36	X37	Y37	Z37	X38	Y38	Z38	X39	Y39	Z39	X40	Y40	Z40	X41	Y41	Z41	X42	Y42	Z42	X43	Y43	Z43	X44	Y44	Z44	X45	Y45	Z45	X46	Y46	Z46	X47	Y47	Z47	X48	Y48	Z48	X49	Y49	Z49	X50	Y50	Z50	X51	Y51	Z51	X52	Y52	Z52	X53	Y53	Z53	X54	Y54	Z54	X55	Y55	Z55	X56	Y56	Z56	X57	Y57	Z57	X58	Y58	Z58	X59	Y59	Z59	X60	Y60	Z60	X61	Y61	Z61	

576	2.875	-157.184326171875	1776.581665039063	-1089.429565429688	-315.9319152832032	1722.309448242188	-1164.8408203125	-338.5923156738282	1724.986450195313	-1026.157348632813	-368.6059265136719	1559.909301757813	-1081.973266601563	-422.978973388672	1235.334838867188	-1075.220336914063	-227.6664123535157	1494.90087890625	-1080.509033203125	-290.1815185546876	1549.542724609375	-1231.489624023438	-138.0798797607422	1424.802978515625	-1344.539794921875	-105.3383407592774	1457.1005859375	-1328.783569335938	-69.37710571289064	1413.248168945313	-1349.966796875	-11.12874412536621	1414.994384765625	-1342.938354492188	-16.76122856140137	1348.983764648438	-1298.260009765625	227.8759918212891	1436.935668945313	-1219.955200195313	255.8695831298829	1405.623779296875	-1284.520874023438	321.7906188964844	1458.712158203125	-1221.570068359375	-295.1878967285157	1560.562622070313	-939.0313110351565	-149.2977294921875	1443.049682617188	-805.0036621093752	-112.1674728393555	1470.721801757813	-818.4075927734377	-82.31112670898439	1423.373046875	-793.6940917968752	-37.22459030151368	1414.783447265625	-795.080505371094	-44.41398239135743	1355.91357421875	-844.1672973632815	213.5329895019532	1463.60302734375	-931.6429443359377	225.409164428711	1435.172729492188	-857.2664184570315	288.6381835937501	1496.726684570313	-927.239929199219	-244.2227020263672	1040.199096679688	-1170.134155273438	-273.7850952148438	1050.71826171875	-921.703063964844	-433.5608215332032	1152.620239257813	-1071.08935546875	-441.1098937988282	1121.110229492188	-1099.459838867188	-446.258270263672	1121.54833984375	-1042.539428710938	-314.8780212402344	799.5012207031252	-1250.199829101563	-277.6580200195313	723.3278198242189	-1236.052368164063	-232.476547241211	732.1320800781251	-1223.384643554688	-305.1418457031251	672.0620727539064	-1215.322265625	-296.5547180175782	519.1151733398439	-1173.695922851563	-276.0412902832032	532.8736572265626	-1036.868041992188	-267.7491455078126	362.3552551269532	-1100.381225585938	-316.7086791992188	309.7227783203126	-1152.56982421875	-280.4208984375001	310.0121154785157	-1125.851318359375	-292.3016357421876	239.4368286132813	-1081.261596679688	-359.3243103027344	107.4674453735352	-1104.8681640625	-328.2853088378907	133.0565490722657	-1015.928405761719	-428.1320800781251	100.3038101196289	-1043.919555664063	-216.9225463867188	57.96461486816408	-1020.894348144531	-208.7538299560547	54.54207992553712	-1070.094970703125	-260.2787170410157	37.09338760375977	-1121.035278320313	-368.9669799804688	759.9490966796876	-826.5136718750002	-329.5140991210938	707.0762939453126	-813.9495239257815	-295.7321472167969	707.4842529296876	-814.6771240234377	-354.3773193359376	627.6087036132814	-827.0828247070315	-375.3349914550782	576.8628540039064	-834.3296508789065	-298.8733215332032	536.7493896484376	-945.338317871094	-438.9519348144532	490.0474853515626	-866.517761230469	-532.4938354492189	542.1896972656251	-869.4244384765627	-525.5383911132814	496.6654357910157	-877.203552246094	-557.9654541015626	471.8784179687501	-918.3413696289065	-735.5169067382814	493.2871398925782	-968.4038085937502	-679.1555175781251	455.3055419921876	-1037.823974609375	-730.6497192382814	553.7894287109376	-1034.04296875	-760.0593261718751	334.1160888671876	-1061.85009765625	-781.8796386718752	332.1305847167969	-1017.394287109375	-819.6947021484377	382.4624023437501	-987.5291748046877	
577	2.88	-156.7542266845703	1776.30078125	-1089.536376953125	-315.7263793945313	1721.935668945313	-1164.97509765625	-337.8375549316407	1724.635498046875	-1026.146728515625	-368.1726684570313	1559.675659179688	-1081.989013671875	-423.1222534179689	1235.1708984375	-1075.111694335938	-227.4140167236329	1494.492431640625	-1080.475708007813	-289.8084106445313	1549.233764648438	-1231.4052734375	-137.8959655761719	1424.189086914063	-1344.486328125	-104.9690551757813	1457.05810546875	-1329.00830078125	-69.22261047363283	1412.807739257813	-1349.944580078125	-10.94065666198731	1414.445556640625	-1342.959350585938	-16.49775695800782	1348.530639648438	-1298.368286132813	228.2567901611329	1436.39013671875	-1220.098266601563	256.1713256835938	1404.97998046875	-1284.711181640625	322.0383911132813	1458.002319335938	-1221.859741210938	-294.7315673828126	1560.272827148438	-939.012390136719	-149.0072021484375	1442.777465820313	-804.906921386719	-111.8862533569336	1470.580444335938	-818.3186645507815	-82.15774536132814	1423.246948242188	-793.5893554687502	-36.66504287719727	1414.5009765625	-795.0239868164065	-44.2534408569336	1355.58154296875	-843.9824829101565	213.8803100585938	1463.320556640625	-931.4735107421877	225.7555694580079	1434.948974609375	-857.1594848632815	289.1414794921876	1496.398681640625	-927.2154541015627	-244.5354919433594	1039.770751953125	-1170.435302734375	-274.1695556640626	1050.18603515625	-921.7469482421877	-433.8871459960939	1152.491577148438	-1070.922607421875	-441.3384704589845	1121.0146484375	-1099.392333984375	-446.5886840820314	1121.428588867188	-1042.4140625	-315.5193786621094	799.3813476562502	-1250.494506835938	-277.8049316406251	723.0206909179689	-1236.166015625	-232.5259552001954	732.0671997070314	-1223.644897460938	-305.0302734375001	671.8030395507814	-1215.512939453125	-296.1700439453126	518.8837280273439	-1173.855224609375	-275.4376525878907	532.7126464843751	-1037.072998046875	-267.3941650390626	362.1653137207032	-1100.477416992188	-316.5411071777344	309.3479919433594	-1152.61083984375	-280.2986145019532	309.8453063964844	-1125.889770507813	-292.0965881347657	239.243637084961	-1081.330444335938	-359.2585144042969	107.4080505371094	-1104.825439453125	-328.2166442871094	133.091293334961	-1015.957214355469	-428.1214294433595	100.3219985961914	-1043.88671875	-216.8853454589844	57.94901657104494	-1020.910522460938	-208.6953582763672	54.49779891967775	-1070.045166015625	-260.2653503417969	37.09156799316407	-1121.062133789063	-369.3072509765626	759.6479492187501	-826.6502075195315	-330.0767517089844	706.5858154296876	-814.088317871094	-296.5375671386719	706.9031982421876	-814.8701171875002	-355.3075561523438	627.2546386718751	-827.2734375000002	-376.0809020996094	576.4959106445314	-834.4737548828127	-299.4846191406251	536.5014648437501	-945.7145996093752	-439.7362060546876	489.603485107422	-866.978698730469	-533.1683959960939	541.7996826171876	-869.5171508789065	-526.2130737304689	496.2051696777345	-877.2957763671877	-558.7319946289064	471.1958923339845	-918.1387329101565	-736.4757080078126	492.5192260742189	-968.411071777344	-679.8161010742189	454.7675170898439	-1037.8603515625	-731.6859130859376	553.0566406250001	-1033.7998046875	-760.3404541015626	333.2712707519532	-1061.645385742188	-783.129333496094	331.3712768554688	-1016.776977539063	-820.444274902344	381.7313842773438	-987.4625244140627	
578	2.885	-156.263900756836	1775.740356445313	-1089.511474609375	-315.2910156250001	1721.626098632813	-1164.8876953125	-337.6179504394532	1724.396240234375	-1026.1171875	-367.8464660644532	1559.4150390625	-1081.999877929688	-423.2486572265626	1235.029174804688	-1074.948364257813	-227.1128997802735	1494.01123046875	-1080.468627929688	-289.3286437988282	1548.859497070313	-1231.307983398438	-137.5536041259766	1423.772338867188	-1344.484130859375	-104.7486038208008	1456.558471679688	-1328.969604492188	-68.88904571533205	1412.301879882813	-1349.978515625	-10.71002674102783	1413.886962890625	-1342.969116210938	-16.28452873229981	1347.986450195313	-1298.440307617188	228.4257507324219	1435.622802734375	-1220.349853515625	256.2466125488282	1404.189331054688	-1284.972534179688	322.3604431152344	1457.310668945313	-1222.117919921875	-294.4135437011719	1559.998779296875	-938.9566040039065	-148.4034729003907	1442.613891601563	-804.9797363281252	-111.6234207153321	1470.415161132813	-818.218200683594	-81.9611282348633	1423.13330078125	-793.4396972656252	-36.31266784667969	1414.292846679688	-794.9761352539065	-43.86814880371094	1355.296752929688	-843.918640136719	214.2897644042969	1463.034301757813	-931.416442871094	226.1802673339844	1434.72802734375	-857.1184692382815	289.4147033691407	1496.12158203125	-927.029235839844	-244.9718627929688	1039.473510742188	-1170.512573242188	-274.5257263183594	1049.848876953125	-921.8213500976565	-434.3148803710939	1152.45458984375	-1070.793701171875	-441.6219482421876	1120.95263671875	-1099.308959960938	-446.9705505371095	1121.267456054688	-1042.251098632813	-315.8474121093751	799.077087402344	-1250.719604492188	-277.9981689453126	723.0617065429689	-1236.15966796875	-232.8525848388672	732.1681518554689	-1223.93408203125	-304.8704528808594	671.5283203125001	-1215.742919921875	-295.3646850585938	518.6386108398439	-1174.084716796875	-274.9900512695313	532.6628417968751	-1037.285034179688	-266.9156188964844	362.0194396972657	-1100.76708984375	-316.3137207031251	309.1816406250001	-1152.804931640625	-279.6477050781251	309.6628723144532	-1126.033935546875	-291.9672546386719	239.1217193603516	-1081.4716796875	-359.2873535156251	107.373764038086	-1104.87841796875	-328.1787719726563	133.0897216796875	-1016.000610351563	-428.1142883300782	100.3544616699219	-1043.955444335938	-216.8677825927735	57.95063400268556	-1020.91015625	-208.7036590576172	54.52540206909181	-1070.05126953125	-260.2723999023438	37.08479690551759	-1121.065795898438	-369.6834106445313	759.2529296875001	-826.8797607421877	-330.5108947753907	706.2544555664064	-814.3432617187502	-297.0762329101563	706.5972290039064	-815.0015869140627	-355.8828430175782	626.8285522460939	-827.681335449219	-376.6289062500001	576.1228637695314	-834.9868164062502	-300.3669128417969	536.0531005859376	-946.0698242187502	-440.4292602539064	489.1408996582032	-867.0971679687502	-534.1684570312501	541.1494750976564	-869.6817626953127	-527.1073608398439	495.5196228027345	-877.393981933594	-559.2403564453126	470.7286071777345	-918.970642089844	-737.3556518554689	491.934051513672	-968.3319091796877	-680.6304931640626	454.2249450683595	-1037.924926757813	-732.6732177734376	552.5139770507814	-1033.682983398438	-761.1448974609376	332.6151428222657	-1061.647094726563	-783.6909179687502	330.6571044921876	-1017.10693359375	-821.2586669921877	380.9467163085938	-987.3508300781252	
579	2.89	-156.0572662353516	1775.36962890625	-1089.572875976563	-314.7469177246094	1721.236206054688	-1164.88037109375	-337.1967163085938	1724.081909179688	-1026.155639648438	-367.5093994140626	1559.224365234375	-1081.911376953125	-423.4010314941407	1234.89013671875	-1074.886352539063	-226.8599090576172	1493.579467773438	-1080.398071289063	-288.8388671875001	1548.548461914063	-1231.210693359375	-137.2644500732422	1423.348266601563	-1344.492919921875	-104.4982681274414	1456.140380859375	-1329.009765625	-68.68826293945314	1411.751098632813	-1349.984741210938	-10.49594020843506	1413.322631835938	-1342.989013671875	-16.10633659362793	1347.377197265625	-1298.226318359375	228.5687713623047	1435.238891601563	-1220.486206054688	257.5228576660157	1403.307495117188	-1285.417602539063	322.9960327148438	1456.276977539063	-1222.484497070313	-294.0295410156251	1559.646484375	-938.9421997070315	-147.995590209961	1442.423217773438	-804.9024658203127	-111.1622161865235	1470.119873046875	-818.2407226562502	-81.41173553466798	1422.909545898438	-793.3718872070315	-36.01124572753907	1414.046508789063	-794.8395996093752	-43.47618103027344	1355.092041015625	-843.8084106445315	214.3312683105469	1462.817016601563	-931.0474243164065	226.6040191650391	1434.441040039063	-857.0461425781252	289.5527038574219	1495.988647460938	-926.9096679687502	-245.5239257812501	1039.144165039063	-1170.61669921875	-274.6663513183594	1049.425415039063	-921.9438476562502	-434.6713256835939	1152.353759765625	-1070.68798828125	-441.8287963867189	1120.81982421875	-1099.253295898438	-447.2187500000001	1121.07666015625	-1042.137451171875	-316.1116333007813	798.7860107421877	-1251.004638671875	-278.2859497070313	722.9330444335939	-1236.586303710938	-232.9563293457032	732.1026611328126	-1224.235595703125	-304.3438110351563	671.1542968750001	-1216.007080078125	-294.7667541503907	518.5068359375001	-1174.373291015625	-274.3168945312501	532.3708496093751	-1037.635498046875	-266.4086303710938	361.8011779785157	-1101.0537109375	-315.7653198242188	309.6863098144532	-1153.103515625	-279.3020629882813	309.5072326660157	-1126.162231445313	-291.7739257812501	238.9628295898438	-1081.541015625	-359.2915649414063	107.4652252197266	-1104.900390625	-328.1805419921876	133.1063079833985	-1015.999938964844	-428.0617675781251	100.3318481445313	-1043.965087890625	-216.8732299804688	57.9536476135254	-1020.8984375	-208.7394409179688	54.5255584716797	-1070.086547851563	-260.2709350585938	37.07932662963868	-1121.065307617188	-370.5458679199219	758.7611694335939	-826.9384765625002	-331.1377258300782	705.8862915039064	-814.7727661132815	-297.7882690429688	705.9226684570314	-815.2164306640627	-356.4176025390626	626.3010253906251	-828.0887451171877	-377.1364440917969	575.4059448242189	-835.411804199219	-301.2255249023438	535.6416625976564	-946.4111938476565	-441.0963439941407	488.5224914550782	-867.1990966796877	-534.8937377929689	540.3588256835939	-869.832458496094	-527.7994995117189	494.9647521972657	-877.5703735351565	-560.3458862304689	470.1733398437501	-918.5842285156252	-738.1956176757814	491.0171203613282	-968.1519775390627	-681.4434814453126	453.5509643554689	-1037.721435546875	-733.5888061523439	551.8946533203126	-1033.609130859375	-762.9692993164064	331.4835815429688	-1061.5654296875	-784.2163696289065	329.7952880859376	-1017.132141113281	-821.9724731445315	379.9396057128907	-987.2209472656252	
